<?xml version="1.0" encoding="utf-8"?>
<!-- Generator: Adobe Illustrator 22.0.0, SVG Export Plug-In . SVG Version: 6.00 Build 0)  -->
<svg version="1.1" id="Layer_1" xmlns="http://www.w3.org/2000/svg" xmlns:xlink="http://www.w3.org/1999/xlink" x="0px" y="0px"
	 viewBox="0 0 35.7 35.7" style="enable-background:new 0 0 35.7 35.7;" xml:space="preserve">
<style type="text/css">
	.st0{fill:#28A745;}
</style>
<g>
	<g>
		<path class="st0" d="M19.8,17.4C19.8,17.4,19.8,17.4,19.8,17.4c2.3,0,4.1-1.8,4.1-4s-1.8-4-4-4s-4,1.8-4,4c0,0,0,0,0,0h2
			c0,0,0,0,0,0c0-1.1,0.9-2,2-2c1.1,0,2,0.9,2,2s-0.9,2-2,2c0,0,0,0,0,0v0h-3.4h-1.5h-6v2L19.8,17.4C19.8,17.4,19.8,17.4,19.8,17.4z
			 M22.8,18.4c-0.1,0-0.1,0-0.2,0H6.8v2h10h2.5h3h0.4v0c0,0,0,0,0,0c1.1,0,2,0.9,2,2s-0.9,2-2,2c-1.1,0-2-0.9-2-2h-2
			c0,2.2,1.8,4,4,4c2.2,0,4-1.8,4-4S25.1,18.4,22.8,18.4z M25.9,11.4v2c0.5,0,1,0.5,1,1c0,0.5-0.4,1-1,1v0h-1l-1,1.5v0.5h1.9
			c0,0,0.1,0,0.1,0c1.7,0,3-1.4,3-3C28.9,12.7,27.5,11.4,25.9,11.4z"/>
	</g>
</g>
</svg>
